<svg width="63" height="18" viewBox="0 0 63 18" fill="none" xmlns="http://www.w3.org/2000/svg">
<path d="M11.2796 0.909091V14H9.74554L2.61202 3.72159H2.48418V14H0.898948V0.909091H2.43304L9.59213 11.2131H9.71997V0.909091H11.2796ZM18.2358 14.2045C17.3494 14.2045 16.5717 13.9936 15.9027 13.5717C15.2379 13.1499 14.718 12.5597 14.343 11.8011C13.9723 11.0426 13.7869 10.1562 13.7869 9.14205C13.7869 8.11932 13.9723 7.22656 14.343 6.46378C14.718 5.70099 15.2379 5.10866 15.9027 4.68679C16.5717 4.26491 17.3494 4.05398 18.2358 4.05398C19.1221 4.05398 19.8977 4.26491 20.5625 4.68679C21.2315 5.10866 21.7514 5.70099 22.1221 6.46378C22.4971 7.22656 22.6846 8.11932 22.6846 9.14205C22.6846 10.1562 22.4971 11.0426 22.1221 11.8011C21.7514 12.5597 21.2315 13.1499 20.5625 13.5717C19.8977 13.9936 19.1221 14.2045 18.2358 14.2045ZM18.2358 12.8494C18.9091 12.8494 19.463 12.6768 19.8977 12.3317C20.3324 11.9865 20.6541 11.5327 20.8629 10.9702C21.0717 10.4077 21.1761 9.7983 21.1761 9.14205C21.1761 8.4858 21.0717 7.87429 20.8629 7.30753C20.6541 6.74077 20.3324 6.28267 19.8977 5.93324C19.463 5.58381 18.9091 5.40909 18.2358 5.40909C17.5625 5.40909 17.0085 5.58381 16.5738 5.93324C16.1392 6.28267 15.8174 6.74077 15.6086 7.30753C15.3998 7.87429 15.2954 8.4858 15.2954 9.14205C15.2954 9.7983 15.3998 10.4077 15.6086 10.9702C15.8174 11.5327 16.1392 11.9865 16.5738 12.3317C17.0085 12.6768 17.5625 12.8494 18.2358 12.8494ZM28.6948 14.2045C27.8766 14.2045 27.1543 13.9979 26.5279 13.5845C25.9014 13.1669 25.4114 12.5788 25.0577 11.8203C24.704 11.0575 24.5271 10.1562 24.5271 9.11648C24.5271 8.08523 24.704 7.19034 25.0577 6.43182C25.4114 5.6733 25.9036 5.08736 26.5342 4.67401C27.1649 4.26065 27.8936 4.05398 28.7203 4.05398C29.3595 4.05398 29.8645 4.16051 30.2352 4.37358C30.6102 4.58239 30.8958 4.82102 31.0918 5.08949C31.2921 5.35369 31.4476 5.57102 31.5584 5.74148H31.6862V0.909091H33.1948V14H31.7374V12.4915H31.5584C31.4476 12.6705 31.2899 12.8963 31.0854 13.169C30.8808 13.4375 30.5889 13.6783 30.2097 13.8913C29.8304 14.1001 29.3254 14.2045 28.6948 14.2045ZM28.8993 12.8494C29.5044 12.8494 30.0158 12.6918 30.4334 12.3764C30.851 12.0568 31.1685 11.6158 31.3858 11.0533C31.6031 10.4865 31.7118 9.83239 31.7118 9.09091C31.7118 8.35795 31.6053 7.71662 31.3922 7.1669C31.1791 6.61293 30.8638 6.18253 30.4462 5.87571C30.0286 5.56463 29.5129 5.40909 28.8993 5.40909C28.2601 5.40909 27.7274 5.57315 27.3013 5.90128C26.8794 6.22514 26.5619 6.66619 26.3489 7.22443C26.1401 7.77841 26.0357 8.40057 26.0357 9.09091C26.0357 9.78977 26.1422 10.4247 26.3553 10.9957C26.5726 11.5625 26.8922 12.0142 27.3141 12.3509C27.7402 12.6832 28.2686 12.8494 28.8993 12.8494ZM40.2835 14.2045C39.3375 14.2045 38.5215 13.9957 37.8354 13.5781C37.1536 13.1562 36.6273 12.5682 36.2565 11.8139C35.8901 11.0554 35.7068 10.1733 35.7068 9.16761C35.7068 8.16193 35.8901 7.27557 36.2565 6.50852C36.6273 5.73722 37.1429 5.13636 37.8034 4.70597C38.4682 4.27131 39.2438 4.05398 40.1301 4.05398C40.6415 4.05398 41.1465 4.1392 41.645 4.30966C42.1436 4.48011 42.5975 4.7571 43.0065 5.14062C43.4156 5.51989 43.7416 6.02273 43.9845 6.64915C44.2274 7.27557 44.3489 8.04687 44.3489 8.96307V9.60227H36.7807V8.2983H42.8148C42.8148 7.74432 42.704 7.25 42.4824 6.81534C42.2651 6.38068 41.954 6.03764 41.5492 5.78622C41.1486 5.5348 40.6756 5.40909 40.1301 5.40909C39.5293 5.40909 39.0094 5.55824 38.5705 5.85653C38.1358 6.15057 37.8013 6.53409 37.5669 7.0071C37.3325 7.48011 37.2154 7.98722 37.2154 8.52841V9.39773C37.2154 10.1392 37.3432 10.7678 37.5989 11.2834C37.8588 11.7947 38.2189 12.1847 38.6791 12.4531C39.1394 12.7173 39.6742 12.8494 40.2835 12.8494C40.6798 12.8494 41.0378 12.794 41.3574 12.6832C41.6813 12.5682 41.9604 12.3977 42.1948 12.1719C42.4291 11.9418 42.6102 11.6562 42.7381 11.3153L44.1955 11.7244C44.0421 12.2188 43.7842 12.6534 43.422 13.0284C43.0598 13.3991 42.6124 13.6889 42.0797 13.8977C41.547 14.1023 40.9483 14.2045 40.2835 14.2045ZM47.7431 14.1023C47.4277 14.1023 47.1571 13.9893 46.9313 13.7635C46.7054 13.5376 46.5925 13.267 46.5925 12.9517C46.5925 12.6364 46.7054 12.3658 46.9313 12.1399C47.1571 11.9141 47.4277 11.8011 47.7431 11.8011C48.0584 11.8011 48.329 11.9141 48.5548 12.1399C48.7807 12.3658 48.8936 12.6364 48.8936 12.9517C48.8936 13.1605 48.8404 13.3523 48.7338 13.527C48.6315 13.7017 48.4931 13.8423 48.3183 13.9489C48.1479 14.0511 47.9561 14.1023 47.7431 14.1023ZM51.6007 4.18182H53.1092V14.7159C53.1092 15.321 53.0048 15.8452 52.796 16.2884C52.5914 16.7315 52.2803 17.0746 51.8627 17.3175C51.4494 17.5604 50.9274 17.6818 50.2967 17.6818C50.2455 17.6818 50.1944 17.6818 50.1433 17.6818C50.0921 17.6818 50.041 17.6818 49.9899 17.6818V16.2756C50.041 16.2756 50.0879 16.2756 50.1305 16.2756C50.1731 16.2756 50.22 16.2756 50.2711 16.2756C50.7313 16.2756 51.068 16.1392 51.2811 15.8665C51.4941 15.598 51.6007 15.2145 51.6007 14.7159V4.18182ZM52.3421 2.54545C52.0481 2.54545 51.7945 2.44531 51.5815 2.24503C51.3727 2.04474 51.2683 1.80398 51.2683 1.52273C51.2683 1.24148 51.3727 1.00071 51.5815 0.800426C51.7945 0.600142 52.0481 0.5 52.3421 0.5C52.6362 0.5 52.8876 0.600142 53.0964 0.800426C53.3095 1.00071 53.416 1.24148 53.416 1.52273C53.416 1.80398 53.3095 2.04474 53.0964 2.24503C52.8876 2.44531 52.6362 2.54545 52.3421 2.54545ZM62.8267 6.38068L61.4716 6.7642C61.3863 6.53835 61.2606 6.31889 61.0944 6.10582C60.9325 5.88849 60.7109 5.70952 60.4297 5.56889C60.1484 5.42827 59.7883 5.35795 59.3494 5.35795C58.7486 5.35795 58.2478 5.49645 57.8473 5.77344C57.451 6.04616 57.2528 6.39347 57.2528 6.81534C57.2528 7.19034 57.3892 7.48651 57.6619 7.70384C57.9346 7.92116 58.3608 8.10227 58.9403 8.24716L60.3977 8.60511C61.2755 8.81818 61.9297 9.14418 62.3601 9.5831C62.7905 10.0178 63.0057 10.5781 63.0057 11.2642C63.0057 11.8267 62.8437 12.3295 62.5199 12.7727C62.2003 13.2159 61.7528 13.5653 61.1775 13.821C60.6023 14.0767 59.9332 14.2045 59.1704 14.2045C58.169 14.2045 57.3402 13.9872 56.6839 13.5526C56.0277 13.1179 55.6122 12.483 55.4375 11.6477L56.8693 11.2898C57.0057 11.8182 57.2635 12.2145 57.6427 12.4787C58.0263 12.7429 58.527 12.875 59.1449 12.875C59.848 12.875 60.4062 12.7259 60.8196 12.4276C61.2372 12.125 61.446 11.7628 61.446 11.3409C61.446 11 61.3267 10.7145 61.088 10.4844C60.8494 10.25 60.4829 10.0753 59.9886 9.96023L58.3523 9.5767C57.4531 9.36364 56.7926 9.03338 56.3707 8.58594C55.9531 8.13423 55.7443 7.5696 55.7443 6.89205C55.7443 6.33807 55.8998 5.84801 56.2109 5.42188C56.5263 4.99574 56.9545 4.66122 57.4957 4.41832C58.0412 4.17543 58.6591 4.05398 59.3494 4.05398C60.321 4.05398 61.0838 4.26705 61.6378 4.69318C62.196 5.11932 62.5923 5.68182 62.8267 6.38068Z" fill="#4B5563"/>
</svg>
