<svg width="101" height="27" viewBox="0 0 101 27" fill="none" xmlns="http://www.w3.org/2000/svg">
<path d="M0.920898 14.1044V10.3544L15.9209 3.74929V8.06392L5.65101 12.1868L5.78951 11.9631V12.4957L5.65101 12.272L15.9209 16.3949V20.7095L0.920898 14.1044ZM19.9125 1.18182H25.6014L31.61 15.8409H31.8656L37.8742 1.18182H43.5631V23H39.0887V8.79901H38.9075L33.2612 22.8935H30.2144L24.5681 8.74574H24.3869V23H19.9125V1.18182ZM46.7637 23V1.18182H51.3766V10.8018H51.6643L59.5158 1.18182H65.0449L56.9483 10.951L65.1408 23H59.6224L53.6458 14.0298L51.3766 16.7997V23H46.7637ZM82.6083 0.159089L75.577 26.2812H71.6672L78.6985 0.159089H82.6083ZM100.079 16.1499L85.0791 22.755V18.4403L95.349 14.3175L95.2105 14.5412V14.0085L95.349 14.2322L85.0791 10.1094V5.79474L100.079 12.3999V16.1499Z" fill="#111827"/>
</svg>
